<svg width="154" height="37" viewBox="0 0 154 37" fill="none" xmlns="http://www.w3.org/2000/svg">
  <g clip-path="url(#clip0_122_6596)">
    <path
      d="M18.8281 0.0898438C8.88762 0.0898438 0.828125 8.14934 0.828125 18.0898C0.828125 28.0303 8.88762 36.0898 18.8281 36.0898C28.7686 36.0898 36.8281 28.0303 36.8281 18.0898C36.8281 8.14934 28.7686 0.0898438 18.8281 0.0898438ZM7.71312 18.0898C7.71312 11.9518 12.6901 6.97484 18.8281 6.97484C24.9661 6.97484 29.9431 11.9518 29.9431 18.0898H7.71312Z"
      fill="#292C33" />
    <path d="M52.263 28.9167H47.655V7.40674H59.976V11.5872H52.263V15.9522H59.364V20.1642H52.263V28.9212V28.9167Z"
      fill="#292C33" />
    <path
      d="M76.8151 25.2898C76.1806 26.5408 75.2626 27.5218 74.0656 28.2418C72.8686 28.9573 71.4376 29.3173 69.7771 29.3173C68.5891 29.3173 67.5046 29.1238 66.5191 28.7323C65.5336 28.3453 64.6921 27.7963 63.9856 27.0898C63.2791 26.3833 62.7256 25.5373 62.3251 24.5563C61.9246 23.5753 61.7266 22.4953 61.7266 21.3298C61.7266 20.1643 61.9246 19.1203 62.3251 18.1483C62.7256 17.1763 63.2791 16.3303 63.9856 15.6148C64.6921 14.8993 65.5246 14.3413 66.4741 13.9408C67.4236 13.5403 68.4676 13.3423 69.5926 13.3423C70.7176 13.3423 71.7886 13.5403 72.7426 13.9408C73.6966 14.3413 74.5111 14.8993 75.1861 15.6148C75.8611 16.3303 76.3876 17.1898 76.7701 18.1798C77.1481 19.1743 77.3371 20.2633 77.3371 21.4513C77.3371 21.7168 77.3326 21.9418 77.3236 22.1263C77.3146 22.3108 77.2966 22.4548 77.2786 22.5583H66.1231C66.1636 23.0083 66.2851 23.4178 66.4921 23.7868C66.6946 24.1558 66.9691 24.4798 67.3066 24.7543C67.6441 25.0288 68.0221 25.2448 68.4451 25.3978C68.8636 25.5508 69.3091 25.6273 69.7816 25.6273C70.6231 25.6273 71.2891 25.4653 71.7796 25.1368C72.2701 24.8083 72.6886 24.3583 73.0396 23.7868L76.8196 25.2943L76.8151 25.2898ZM72.9451 19.6333C72.8416 18.8143 72.4861 18.1438 71.8696 17.6218C71.2531 17.0998 70.4881 16.8388 69.5656 16.8388C69.1156 16.8388 68.6926 16.9153 68.3056 17.0683C67.9141 17.2213 67.5676 17.4328 67.2616 17.6983C66.9556 17.9638 66.7036 18.2608 66.5101 18.5893C66.3166 18.9178 66.1951 19.2643 66.1546 19.6333H72.9451Z"
      fill="#292C33" />
    <path
      d="M93.9015 28.9166L90.738 19.6376L87.5745 28.9166H83.826L78.48 13.7336H83.061L86.013 22.9226L89.1495 13.7336H92.439L95.544 22.9226L98.5545 13.7336H103.009L97.632 28.9166H93.915H93.9015Z"
      fill="#292C33" />
    <path
      d="M104.135 21.3251C104.135 20.1776 104.333 19.1156 104.733 18.1436C105.134 17.1716 105.692 16.3256 106.407 15.6101C107.123 14.8946 107.978 14.3366 108.972 13.9361C109.967 13.5356 111.056 13.3376 112.244 13.3376C112.901 13.3376 113.558 13.4141 114.224 13.5671C114.89 13.7201 115.497 13.9631 116.051 14.2871V18.4991C115.007 17.7611 113.909 17.3921 112.761 17.3921C112.167 17.3921 111.618 17.4911 111.119 17.6846C110.615 17.8781 110.183 18.1526 109.814 18.4991C109.445 18.8456 109.157 19.2641 108.954 19.7456C108.747 20.2271 108.648 20.7536 108.648 21.3296C108.648 21.9056 108.752 22.4321 108.954 22.9136C109.157 23.3951 109.445 23.8091 109.814 24.1601C110.183 24.5066 110.619 24.7811 111.119 24.9746C111.618 25.1681 112.167 25.2671 112.761 25.2671C113.355 25.2671 113.94 25.1591 114.512 24.9431C115.083 24.7271 115.605 24.4481 116.078 24.0971V28.3361C115.461 28.6871 114.822 28.9346 114.156 29.0876C113.49 29.2406 112.829 29.3171 112.172 29.3171C111.006 29.3171 109.926 29.1236 108.945 28.7321C107.96 28.3451 107.109 27.8006 106.394 27.1031C105.678 26.4056 105.12 25.5686 104.72 24.5831C104.319 23.5976 104.121 22.5131 104.121 21.3251H104.135Z"
      fill="#292C33" />
    <path
      d="M123.71 28.9167H119.223V7.40674H123.71V15.6732C124.182 14.9352 124.79 14.3637 125.537 13.9542C126.284 13.5447 127.17 13.3377 128.196 13.3377C129.938 13.3377 131.306 13.8912 132.3 14.9982C133.295 16.1052 133.79 17.6217 133.79 19.5477V28.9212H129.303V20.5602C129.303 19.5747 129.069 18.8142 128.597 18.2697C128.124 17.7252 127.458 17.4552 126.599 17.4552C125.739 17.4552 125.015 17.7612 124.493 18.3777C123.971 18.9942 123.71 19.8222 123.71 20.8662V28.9167Z"
      fill="#292C33" />
    <path
      d="M153.18 13.7382V28.9212H148.784V26.8917C148.253 27.6702 147.551 28.2642 146.678 28.6737C145.805 29.0832 144.869 29.2902 143.865 29.2902C142.862 29.2902 141.894 29.0832 141.021 28.6737C140.148 28.2642 139.392 27.7062 138.749 26.9997C138.105 26.2932 137.597 25.4517 137.228 24.4797C136.859 23.5077 136.674 22.4547 136.674 21.3297C136.674 20.2047 136.859 19.1562 137.228 18.1932C137.597 17.2302 138.105 16.3932 138.749 15.6732C139.392 14.9577 140.153 14.3952 141.021 13.9812C141.89 13.5717 142.839 13.3647 143.865 13.3647C144.891 13.3647 145.805 13.5582 146.678 13.9497C147.546 14.3412 148.248 14.9217 148.784 15.7002V13.7337H153.18V13.7382ZM141.134 21.3297C141.134 21.8832 141.237 22.3962 141.44 22.8687C141.642 23.3412 141.921 23.7552 142.268 24.1152C142.614 24.4752 143.024 24.7542 143.496 24.9612C143.969 25.1682 144.482 25.2672 145.031 25.2672C145.58 25.2672 146.097 25.1637 146.57 24.9612C147.042 24.7587 147.452 24.4752 147.798 24.1152C148.145 23.7552 148.424 23.3412 148.626 22.8687C148.833 22.3962 148.932 21.8832 148.932 21.3297C148.932 20.7762 148.829 20.2632 148.626 19.7952C148.419 19.3227 148.145 18.9087 147.798 18.5487C147.452 18.1887 147.042 17.9097 146.57 17.7027C146.097 17.4957 145.584 17.3967 145.031 17.3967C144.477 17.3967 143.964 17.5002 143.496 17.7027C143.024 17.9097 142.614 18.1887 142.268 18.5487C141.921 18.9087 141.642 19.3227 141.44 19.7952C141.233 20.2677 141.134 20.7807 141.134 21.3297Z"
      fill="#292C33" />
  </g>
  <defs>
    <clipPath id="clip0_122_6596">
      <rect width="152.352" height="36" fill="white" transform="translate(0.828125 0.0898438)" />
    </clipPath>
  </defs>
</svg>