<svg width="153" height="37" viewBox="0 0 153 37" fill="none" xmlns="http://www.w3.org/2000/svg">
  <g clip-path="url(#clip0_14_38205)">
    <path
      d="M18 0.5C8.0595 0.5 0 8.5595 0 18.5C0 28.4405 8.0595 36.5 18 36.5C27.9405 36.5 36 28.4405 36 18.5C36 8.5595 27.9405 0.5 18 0.5ZM6.885 18.5C6.885 12.362 11.862 7.385 18 7.385C24.138 7.385 29.115 12.362 29.115 18.5H6.885Z"
      fill="white" />
    <path d="M51.435 29.3269H46.827V7.81689H59.148V11.9974H51.435V16.3624H58.536V20.5744H51.435V29.3314V29.3269Z"
      fill="white" />
    <path
      d="M75.9871 25.6999C75.3526 26.9509 74.4346 27.9319 73.2376 28.6519C72.0406 29.3674 70.6096 29.7274 68.9491 29.7274C67.7611 29.7274 66.6766 29.5339 65.6911 29.1424C64.7056 28.7554 63.8641 28.2064 63.1576 27.4999C62.4511 26.7934 61.8976 25.9474 61.4971 24.9664C61.0966 23.9854 60.8986 22.9054 60.8986 21.7399C60.8986 20.5744 61.0966 19.5304 61.4971 18.5584C61.8976 17.5864 62.4511 16.7404 63.1576 16.0249C63.8641 15.3094 64.6966 14.7514 65.6461 14.3509C66.5956 13.9504 67.6396 13.7524 68.7646 13.7524C69.8896 13.7524 70.9606 13.9504 71.9146 14.3509C72.8686 14.7514 73.6831 15.3094 74.3581 16.0249C75.0331 16.7404 75.5596 17.5999 75.9421 18.5899C76.3201 19.5844 76.5091 20.6734 76.5091 21.8614C76.5091 22.1269 76.5046 22.3519 76.4956 22.5364C76.4866 22.7209 76.4686 22.8649 76.4506 22.9684H65.2951C65.3356 23.4184 65.4571 23.8279 65.6641 24.1969C65.8666 24.5659 66.1411 24.8899 66.4786 25.1644C66.8161 25.4389 67.1941 25.6549 67.6171 25.8079C68.0356 25.9609 68.4811 26.0374 68.9536 26.0374C69.7951 26.0374 70.4611 25.8754 70.9516 25.5469C71.4421 25.2184 71.8606 24.7684 72.2116 24.1969L75.9916 25.7044L75.9871 25.6999ZM72.1171 20.0434C72.0136 19.2244 71.6581 18.5539 71.0416 18.0319C70.4251 17.5099 69.6601 17.2489 68.7376 17.2489C68.2876 17.2489 67.8646 17.3254 67.4776 17.4784C67.0861 17.6314 66.7396 17.8429 66.4336 18.1084C66.1276 18.3739 65.8756 18.6709 65.6821 18.9994C65.4886 19.3279 65.3671 19.6744 65.3266 20.0434H72.1171V20.0434Z"
      fill="white" />
    <path
      d="M93.0735 29.3268L89.91 20.0478L86.7465 29.3268H82.998L77.652 14.1438H82.233L85.185 23.3328L88.3215 14.1438H91.611L94.716 23.3328L97.7265 14.1438H102.181L96.804 29.3268H93.087H93.0735Z"
      fill="white" />
    <path
      d="M103.306 21.7353C103.306 20.5878 103.504 19.5258 103.905 18.5538C104.305 17.5818 104.863 16.7358 105.579 16.0203C106.294 15.3048 107.149 14.7468 108.144 14.3463C109.138 13.9458 110.227 13.7478 111.415 13.7478C112.072 13.7478 112.729 13.8243 113.395 13.9773C114.061 14.1303 114.669 14.3733 115.222 14.6973V18.9093C114.178 18.1713 113.08 17.8023 111.933 17.8023C111.339 17.8023 110.79 17.9013 110.29 18.0948C109.786 18.2883 109.354 18.5628 108.985 18.9093C108.616 19.2558 108.328 19.6743 108.126 20.1558C107.919 20.6373 107.82 21.1638 107.82 21.7398C107.82 22.3158 107.923 22.8423 108.126 23.3238C108.328 23.8053 108.616 24.2193 108.985 24.5703C109.354 24.9168 109.791 25.1913 110.29 25.3848C110.79 25.5783 111.339 25.6773 111.933 25.6773C112.527 25.6773 113.112 25.5693 113.683 25.3533C114.255 25.1373 114.777 24.8583 115.249 24.5073V28.7463C114.633 29.0973 113.994 29.3448 113.328 29.4978C112.662 29.6508 112 29.7273 111.343 29.7273C110.178 29.7273 109.098 29.5338 108.117 29.1423C107.131 28.7553 106.281 28.2108 105.565 27.5133C104.85 26.8158 104.292 25.9788 103.891 24.9933C103.491 24.0078 103.293 22.9233 103.293 21.7353H103.306Z"
      fill="white" />
    <path
      d="M122.882 29.3269H118.395V7.81689H122.882V16.0834C123.354 15.3454 123.962 14.7739 124.709 14.3644C125.456 13.9549 126.342 13.7479 127.368 13.7479C129.11 13.7479 130.478 14.3014 131.472 15.4084C132.467 16.5154 132.962 18.0319 132.962 19.9579V29.3314H128.475V20.9704C128.475 19.9849 128.241 19.2244 127.769 18.6799C127.296 18.1354 126.63 17.8654 125.771 17.8654C124.911 17.8654 124.187 18.1714 123.665 18.7879C123.143 19.4044 122.882 20.2324 122.882 21.2764V29.3269V29.3269Z"
      fill="white" />
    <path
      d="M152.352 14.1484V29.3314H147.956V27.3019C147.425 28.0804 146.723 28.6744 145.85 29.0839C144.977 29.4934 144.041 29.7004 143.037 29.7004C142.034 29.7004 141.066 29.4934 140.193 29.0839C139.32 28.6744 138.564 28.1164 137.921 27.4099C137.277 26.7034 136.769 25.8619 136.4 24.8899C136.031 23.9179 135.846 22.8649 135.846 21.7399C135.846 20.6149 136.031 19.5664 136.4 18.6034C136.769 17.6404 137.277 16.8034 137.921 16.0834C138.564 15.3679 139.325 14.8054 140.193 14.3914C141.062 13.9819 142.011 13.7749 143.037 13.7749C144.063 13.7749 144.977 13.9684 145.85 14.3599C146.718 14.7514 147.42 15.3319 147.956 16.1104V14.1439H152.352V14.1484ZM140.306 21.7399C140.306 22.2934 140.409 22.8064 140.612 23.2789C140.814 23.7514 141.093 24.1654 141.44 24.5254C141.786 24.8854 142.196 25.1644 142.668 25.3714C143.141 25.5784 143.654 25.6774 144.203 25.6774C144.752 25.6774 145.269 25.5739 145.742 25.3714C146.214 25.1689 146.624 24.8854 146.97 24.5254C147.317 24.1654 147.596 23.7514 147.798 23.2789C148.005 22.8064 148.104 22.2934 148.104 21.7399C148.104 21.1864 148.001 20.6734 147.798 20.2054C147.591 19.7329 147.317 19.3189 146.97 18.9589C146.624 18.5989 146.214 18.3199 145.742 18.1129C145.269 17.9059 144.756 17.8069 144.203 17.8069C143.649 17.8069 143.136 17.9104 142.668 18.1129C142.196 18.3199 141.786 18.5989 141.44 18.9589C141.093 19.3189 140.814 19.7329 140.612 20.2054C140.405 20.6779 140.306 21.1909 140.306 21.7399Z"
      fill="white" />
  </g>
  <defs>
    <clipPath id="clip0_14_38205">
      <rect width="152.352" height="36" fill="white" transform="translate(0 0.5)" />
    </clipPath>
  </defs>
</svg>