<svg width="151" height="32" viewBox="0 0 151 32" fill="none" xmlns="http://www.w3.org/2000/svg">
<g clip-path="url(#clip0_40_570)">
<path d="M24.1002 15.993H8.10742C8.10742 11.5997 11.7033 7.98938 16.111 7.98938C20.5188 7.98938 24.1147 11.5852 24.1147 15.993H24.1002Z" fill="white"/>
<path d="M16.0963 0.000244141C7.26618 0.000244141 0.103516 7.16291 0.103516 15.993C0.103516 24.8231 7.26618 31.9857 16.0963 31.9857C24.9264 31.9857 32.089 24.8231 32.089 15.993C32.089 7.16291 24.9408 0.000244141 16.0963 0.000244141ZM16.0963 27.9984C9.49907 27.9984 4.09083 22.6047 4.09083 15.993C4.09083 9.3813 9.49907 4.00206 16.0963 4.00206C22.6935 4.00206 28.1017 9.3958 28.1017 16.0075C28.1017 22.6192 22.708 28.0129 16.0963 28.0129V27.9984Z" fill="white"/>
<path d="M47.2266 11.6432H51.4604V15.6015H47.2266V27.955H42.4273V15.6015H40.1074V11.6432H42.4273V10.9183C42.4273 8.71435 43.0218 7.00343 44.2252 5.79999C45.4287 4.59655 47.0671 4.00208 49.1405 4.00208C50.2569 4.00208 51.1414 4.16157 51.8229 4.52405V8.64186C51.3009 8.36637 50.6629 8.20688 49.9815 8.20688C49.2275 8.20688 48.546 8.40987 48.024 8.84485C47.5021 9.25083 47.2266 9.9613 47.2266 10.9617V11.6432Z" fill="white"/>
<path d="M68.6572 24.0836C67.9757 25.4466 66.9753 26.4905 65.6993 27.2445C64.4234 27.9985 62.8575 28.4044 61.1031 28.4044C59.8271 28.4044 58.6672 28.2015 57.5797 27.7665C56.5358 27.3605 55.6223 26.766 54.8538 26.0121C54.0999 25.2581 53.4909 24.3301 53.0559 23.2862C52.621 22.2422 52.418 21.0823 52.418 19.8063C52.418 18.5304 52.621 17.443 53.0559 16.37C53.4909 15.3261 54.0999 14.4126 54.8538 13.6441C55.6078 12.8902 56.4923 12.2812 57.5362 11.8462C58.5802 11.4112 59.6966 11.2083 60.9001 11.2083C62.1035 11.2083 63.2635 11.4112 64.2929 11.8462C65.3369 12.2812 66.2068 12.8902 66.9318 13.6441C67.6568 14.3981 68.2077 15.3261 68.6572 16.399C69.0632 17.472 69.2517 18.6319 69.2517 19.9223V20.6473C69.2517 20.8503 69.2517 21.0098 69.2082 21.1258H57.2027C57.2462 21.6043 57.3622 22.0392 57.6087 22.4452C57.8552 22.8512 58.1307 23.1992 58.4932 23.4892C58.8557 23.7647 59.2471 24.0112 59.7401 24.1706C60.1751 24.3301 60.6536 24.4171 61.1756 24.4171C62.089 24.4171 62.814 24.2576 63.336 23.8952C63.8579 23.5327 64.3364 23.0542 64.6989 22.4597L68.7732 24.0981H68.6572V24.0836ZM64.4959 18.0084C64.3799 17.124 64.0174 16.4135 63.336 15.848C62.6545 15.2826 61.857 15.0071 60.8566 15.0071C60.3781 15.0071 59.9431 15.0941 59.4936 15.2536C59.0877 15.4131 58.6962 15.6595 58.3772 15.935C58.0582 16.2105 57.7827 16.5295 57.5797 16.892C57.3767 17.2545 57.2607 17.617 57.1737 18.0084H64.4959Z" fill="white"/>
<path d="M87.056 27.9979L83.6631 17.9933L80.2703 27.9979H76.225L70.4688 11.6426H75.384L78.5449 21.5167L81.9087 11.6426H85.4755L88.8394 21.5167L92.0727 11.6426H96.872L91.0723 27.9979H87.0705H87.056Z" fill="white"/>
<path d="M98.1037 19.8063C98.1037 18.5594 98.3067 17.443 98.7417 16.37C99.1767 15.3261 99.7857 14.4126 100.54 13.6441C101.294 12.8902 102.222 12.2812 103.294 11.8462C104.367 11.4112 105.527 11.2083 106.818 11.2083C107.543 11.2083 108.224 11.2952 108.935 11.4547C109.66 11.6142 110.298 11.8897 110.892 12.2087V16.7325C109.776 15.935 108.572 15.529 107.325 15.529C106.687 15.529 106.078 15.645 105.571 15.848C105.049 16.051 104.57 16.37 104.164 16.7325C103.758 17.095 103.439 17.5735 103.251 18.0954C103.005 18.6174 102.932 19.1684 102.932 19.8208C102.932 20.4733 103.048 21.0243 103.251 21.5463C103.454 22.0682 103.773 22.5032 104.164 22.9092C104.57 23.2717 105.049 23.5907 105.571 23.7937C106.093 23.9967 106.687 24.1126 107.325 24.1126C107.963 24.1126 108.601 23.9967 109.21 23.7502C109.805 23.5037 110.414 23.2282 110.892 22.8367V27.3895C110.211 27.752 109.529 28.0275 108.819 28.187C108.094 28.3464 107.383 28.4334 106.702 28.4334C105.455 28.4334 104.295 28.2305 103.222 27.7955C102.178 27.3895 101.265 26.795 100.467 26.0411C99.7132 25.2871 99.1042 24.4026 98.6692 23.3152C98.2342 22.2422 98.0312 21.0823 98.0312 19.7918L98.1182 19.8353L98.1037 19.8063Z" fill="white"/>
<path d="M119.173 27.9986H114.33V4.84314H119.173V13.7167C119.695 12.9193 120.333 12.3103 121.13 11.8753C121.928 11.4403 122.885 11.1938 124.016 11.1938C125.901 11.1938 127.379 11.7883 128.409 12.9918C129.453 14.1952 130.004 15.8336 130.004 17.878V27.9551H125.161V18.951C125.161 17.907 124.915 17.0661 124.407 16.4716C123.885 15.8771 123.16 15.5871 122.247 15.5871C121.333 15.5871 120.521 15.9061 119.97 16.5876C119.405 17.2691 119.129 18.1535 119.129 19.27V27.9551L119.173 27.9986Z" fill="white"/>
<path d="M150.897 11.6432V27.9984H146.185V25.7945C145.62 26.6355 144.866 27.2735 143.909 27.7084C142.995 28.1434 141.951 28.3899 140.864 28.3899C139.776 28.3899 138.747 28.1434 137.79 27.7084C136.876 27.2735 136.035 26.6645 135.354 25.9105C134.673 25.1566 134.107 24.2286 133.716 23.1847C133.31 22.1407 133.121 21.0243 133.121 19.7918C133.121 18.5594 133.324 17.4719 133.716 16.428C134.122 15.384 134.673 14.4706 135.354 13.7021C136.035 12.9481 136.876 12.3392 137.79 11.9042C138.703 11.4692 139.747 11.2227 140.864 11.2227C141.98 11.2227 142.937 11.4257 143.909 11.8607C144.822 12.2667 145.591 12.9046 146.185 13.7456V11.6287H150.897V11.6432ZM137.935 19.8063C137.935 20.4008 138.051 20.9663 138.254 21.4447C138.5 21.9667 138.776 22.4017 139.138 22.7642C139.501 23.1267 139.936 23.4456 140.458 23.6776C140.98 23.9241 141.502 23.9966 142.096 23.9966C142.691 23.9966 143.256 23.8806 143.735 23.6776C144.257 23.4746 144.692 23.1557 145.054 22.7642C145.417 22.3582 145.736 21.9232 145.938 21.4447C146.185 20.9228 146.257 20.3718 146.257 19.8063C146.257 19.2408 146.141 18.6464 145.938 18.1679C145.736 17.6459 145.417 17.2109 145.054 16.8485C144.692 16.4425 144.257 16.167 143.735 15.935C143.213 15.6885 142.691 15.616 142.096 15.616C141.502 15.616 140.936 15.732 140.458 15.935C139.936 16.138 139.501 16.457 139.138 16.8485C138.776 17.2544 138.457 17.6894 138.254 18.1679C138.051 18.6899 137.935 19.2408 137.935 19.8063Z" fill="white"/>
</g>
<defs>
<clipPath id="clip0_40_570">
<rect width="150.793" height="32" fill="white" transform="translate(0.103516 0.000244141)"/>
</clipPath>
</defs>
</svg>
