<svg width="151" height="32" viewBox="0 0 151 32" fill="none" xmlns="http://www.w3.org/2000/svg">
<g clip-path="url(#clip0_40_552)">
<path d="M24.1002 15.9929H8.10742C8.10742 11.5996 11.7033 7.98926 16.111 7.98926C20.5188 7.98926 24.1147 11.5851 24.1147 15.9929H24.1002Z" fill="white"/>
<path d="M16.0963 0C7.26618 0 0.103516 7.16266 0.103516 15.9927C0.103516 24.8228 7.26618 31.9855 16.0963 31.9855C24.9264 31.9855 32.089 24.8228 32.089 15.9927C32.089 7.16266 24.9408 0 16.0963 0ZM16.0963 27.9982C9.49907 27.9982 4.09083 22.6044 4.09083 15.9927C4.09083 9.38106 9.49907 4.00181 16.0963 4.00181C22.6935 4.00181 28.1017 9.39556 28.1017 16.0072C28.1017 22.6189 22.708 28.0127 16.0963 28.0127V27.9982Z" fill="white"/>
<path d="M47.2266 11.6431H51.4604V15.6014H47.2266V27.9548H42.4273V15.6014H40.1074V11.6431H42.4273V10.9181C42.4273 8.71423 43.0218 7.00331 44.2252 5.79987C45.4287 4.59643 47.0671 4.00195 49.1405 4.00195C50.2569 4.00195 51.1414 4.16145 51.8229 4.52393V8.64174C51.3009 8.36625 50.6629 8.20676 49.9815 8.20676C49.2275 8.20676 48.546 8.40975 48.024 8.84473C47.5021 9.25071 47.2266 9.96117 47.2266 10.9616V11.6431Z" fill="white"/>
<path d="M68.6572 24.0834C67.9757 25.4463 66.9753 26.4903 65.6993 27.2443C64.4234 27.9982 62.8575 28.4042 61.1031 28.4042C59.8271 28.4042 58.6672 28.2012 57.5797 27.7662C56.5358 27.3603 55.6223 26.7658 54.8538 26.0118C54.0999 25.2578 53.4909 24.3299 53.0559 23.2859C52.621 22.242 52.418 21.082 52.418 19.8061C52.418 18.5302 52.621 17.4427 53.0559 16.3698C53.4909 15.3258 54.0999 14.4124 54.8538 13.6439C55.6078 12.8899 56.4923 12.281 57.5362 11.846C58.5802 11.411 59.6966 11.208 60.9001 11.208C62.1035 11.208 63.2635 11.411 64.2929 11.846C65.3369 12.281 66.2068 12.8899 66.9318 13.6439C67.6568 14.3979 68.2077 15.3258 68.6572 16.3988C69.0632 17.4717 69.2517 18.6317 69.2517 19.9221V20.6471C69.2517 20.8501 69.2517 21.0095 69.2082 21.1255H57.2027C57.2462 21.604 57.3622 22.039 57.6087 22.445C57.8552 22.851 58.1307 23.1989 58.4932 23.4889C58.8557 23.7644 59.2471 24.0109 59.7401 24.1704C60.1751 24.3299 60.6536 24.4169 61.1756 24.4169C62.089 24.4169 62.814 24.2574 63.336 23.8949C63.8579 23.5324 64.3364 23.054 64.6989 22.4595L68.7732 24.0979H68.6572V24.0834ZM64.4959 18.0082C64.3799 17.1237 64.0174 16.4133 63.336 15.8478C62.6545 15.2823 61.857 15.0068 60.8566 15.0068C60.3781 15.0068 59.9431 15.0938 59.4936 15.2533C59.0877 15.4128 58.6962 15.6593 58.3772 15.9348C58.0582 16.2103 57.7827 16.5293 57.5797 16.8917C57.3767 17.2542 57.2607 17.6167 57.1737 18.0082H64.4959Z" fill="white"/>
<path d="M87.056 27.9978L83.6631 17.9933L80.2703 27.9978H76.225L70.4688 11.6426H75.384L78.5449 21.5166L81.9087 11.6426H85.4755L88.8394 21.5166L92.0727 11.6426H96.872L91.0723 27.9978H87.0705H87.056Z" fill="white"/>
<path d="M98.1037 19.8061C98.1037 18.5592 98.3067 17.4427 98.7417 16.3698C99.1767 15.3258 99.7857 14.4124 100.54 13.6439C101.294 12.8899 102.222 12.281 103.294 11.846C104.367 11.411 105.527 11.208 106.818 11.208C107.543 11.208 108.224 11.295 108.935 11.4545C109.66 11.614 110.298 11.8895 110.892 12.2085V16.7322C109.776 15.9348 108.572 15.5288 107.325 15.5288C106.687 15.5288 106.078 15.6448 105.571 15.8478C105.049 16.0508 104.57 16.3698 104.164 16.7322C103.758 17.0947 103.439 17.5732 103.251 18.0952C103.005 18.6172 102.932 19.1681 102.932 19.8206C102.932 20.4731 103.048 21.024 103.251 21.546C103.454 22.068 103.773 22.503 104.164 22.909C104.57 23.2714 105.049 23.5904 105.571 23.7934C106.093 23.9964 106.687 24.1124 107.325 24.1124C107.963 24.1124 108.601 23.9964 109.21 23.7499C109.805 23.5034 110.414 23.2279 110.892 22.8365V27.3892C110.211 27.7517 109.529 28.0272 108.819 28.1867C108.094 28.3462 107.383 28.4332 106.702 28.4332C105.455 28.4332 104.295 28.2302 103.222 27.7952C102.178 27.3892 101.265 26.7948 100.467 26.0408C99.7132 25.2868 99.1042 24.4024 98.6692 23.3149C98.2342 22.242 98.0312 21.082 98.0312 19.7916L98.1182 19.8351L98.1037 19.8061Z" fill="white"/>
<path d="M119.173 27.9982H114.33V4.84277H119.173V13.7164C119.695 12.9189 120.333 12.3099 121.13 11.8749C121.928 11.44 122.885 11.1935 124.016 11.1935C125.901 11.1935 127.379 11.7879 128.409 12.9914C129.453 14.1948 130.004 15.8333 130.004 17.8777V27.9547H125.161V18.9506C125.161 17.9067 124.915 17.0657 124.407 16.4712C123.885 15.8768 123.16 15.5868 122.247 15.5868C121.333 15.5868 120.521 15.9058 119.97 16.5872C119.405 17.2687 119.129 18.1531 119.129 19.2696V27.9547L119.173 27.9982Z" fill="white"/>
<path d="M150.897 11.6431V27.9984H146.185V25.7945C145.62 26.6354 144.866 27.2734 143.909 27.7084C142.995 28.1434 141.951 28.3899 140.864 28.3899C139.776 28.3899 138.747 28.1434 137.79 27.7084C136.876 27.2734 136.035 26.6644 135.354 25.9105C134.673 25.1565 134.107 24.2285 133.716 23.1846C133.31 22.1406 133.121 21.0242 133.121 19.7918C133.121 18.5593 133.324 17.4719 133.716 16.4279C134.122 15.384 134.673 14.4705 135.354 13.702C136.035 12.9481 136.876 12.3391 137.79 11.9041C138.703 11.4691 139.747 11.2227 140.864 11.2227C141.98 11.2227 142.937 11.4256 143.909 11.8606C144.822 12.2666 145.591 12.9046 146.185 13.7455V11.6286H150.897V11.6431ZM137.935 19.8063C137.935 20.4007 138.051 20.9662 138.254 21.4447C138.5 21.9667 138.776 22.4016 139.138 22.7641C139.501 23.1266 139.936 23.4456 140.458 23.6776C140.98 23.9241 141.502 23.9966 142.096 23.9966C142.691 23.9966 143.256 23.8806 143.735 23.6776C144.257 23.4746 144.692 23.1556 145.054 22.7641C145.417 22.3581 145.736 21.9232 145.938 21.4447C146.185 20.9227 146.257 20.3717 146.257 19.8063C146.257 19.2408 146.141 18.6463 145.938 18.1678C145.736 17.6459 145.417 17.2109 145.054 16.8484C144.692 16.4424 144.257 16.1669 143.735 15.9349C143.213 15.6884 142.691 15.616 142.096 15.616C141.502 15.616 140.936 15.7319 140.458 15.9349C139.936 16.1379 139.501 16.4569 139.138 16.8484C138.776 17.2544 138.457 17.6894 138.254 18.1678C138.051 18.6898 137.935 19.2408 137.935 19.8063Z" fill="white"/>
</g>
<defs>
<clipPath id="clip0_40_552">
<rect width="150.793" height="32" fill="white" transform="translate(0.103516)"/>
</clipPath>
</defs>
</svg>
